<mxfile host="app.diagrams.net" modified="2021-02-20T00:38:20.405Z" agent="5.0 (Windows NT 10.0; Win64; x64) AppleWebKit/537.36 (KHTML, like Gecko) Chrome/87.0.4280.88 Safari/537.36" etag="b4itfjjS-Uqbtd71O7K-" version="13.4.9" type="github">
  <diagram id="R2lEEEUBdFMjLlhIrx00" name="Page-1">
    <mxGraphModel dx="868" dy="450" grid="1" gridSize="10" guides="1" tooltips="1" connect="1" arrows="1" fold="1" page="1" pageScale="1" pageWidth="850" pageHeight="1100" math="0" shadow="0" extFonts="Permanent Marker^https://fonts.googleapis.com/css?family=Permanent+Marker">
      <root>
        <mxCell id="0" />
        <mxCell id="1" parent="0" />
        <mxCell id="clO0gQxYRbjcscfBldyJ-1" value="Digital Wallets" style="shape=image;html=1;verticalAlign=top;verticalLabelPosition=bottom;labelBackgroundColor=#ffffff;imageAspect=0;aspect=fixed;image=https://cdn3.iconfinder.com/data/icons/luchesa-vol-9/128/Purse-128.png" vertex="1" parent="1">
          <mxGeometry x="410" y="163" width="90" height="90" as="geometry" />
        </mxCell>
        <mxCell id="clO0gQxYRbjcscfBldyJ-3" value="Ponzi Style" style="pointerEvents=1;shadow=0;dashed=0;html=1;strokeColor=none;labelPosition=center;verticalLabelPosition=bottom;verticalAlign=top;align=center;fillColor=#505050;shape=mxgraph.mscae.intune.user_group" vertex="1" parent="1">
          <mxGeometry x="200" y="189.5" width="50" height="37" as="geometry" />
        </mxCell>
        <mxCell id="clO0gQxYRbjcscfBldyJ-4" value="" style="pointerEvents=1;shadow=0;dashed=0;html=1;strokeColor=none;labelPosition=center;verticalLabelPosition=bottom;verticalAlign=top;align=center;fillColor=#505050;shape=mxgraph.mscae.intune.user_group" vertex="1" parent="1">
          <mxGeometry x="110" y="180" width="50" height="37" as="geometry" />
        </mxCell>
        <mxCell id="clO0gQxYRbjcscfBldyJ-5" value="" style="pointerEvents=1;shadow=0;dashed=0;html=1;strokeColor=none;labelPosition=center;verticalLabelPosition=bottom;verticalAlign=top;align=center;fillColor=#505050;shape=mxgraph.mscae.intune.user_group" vertex="1" parent="1">
          <mxGeometry x="120" y="253" width="50" height="37" as="geometry" />
        </mxCell>
        <mxCell id="clO0gQxYRbjcscfBldyJ-6" value="" style="pointerEvents=1;shadow=0;dashed=0;html=1;strokeColor=none;labelPosition=center;verticalLabelPosition=bottom;verticalAlign=top;align=center;fillColor=#505050;shape=mxgraph.mscae.intune.user_group" vertex="1" parent="1">
          <mxGeometry x="110" y="110" width="50" height="37" as="geometry" />
        </mxCell>
        <mxCell id="clO0gQxYRbjcscfBldyJ-7" value="" style="endArrow=classic;html=1;entryX=0;entryY=0.5;entryDx=0;entryDy=0;exitX=0.92;exitY=0.5;exitDx=0;exitDy=0;exitPerimeter=0;" edge="1" parent="1" source="clO0gQxYRbjcscfBldyJ-3" target="clO0gQxYRbjcscfBldyJ-1">
          <mxGeometry width="50" height="50" relative="1" as="geometry">
            <mxPoint x="310" y="240" as="sourcePoint" />
            <mxPoint x="360" y="190" as="targetPoint" />
          </mxGeometry>
        </mxCell>
        <mxCell id="clO0gQxYRbjcscfBldyJ-8" value="&amp;gt;= 500 USD digital Currency" style="edgeLabel;html=1;align=center;verticalAlign=middle;resizable=0;points=[];fontSize=13;" vertex="1" connectable="0" parent="clO0gQxYRbjcscfBldyJ-7">
          <mxGeometry x="0.1806" relative="1" as="geometry">
            <mxPoint as="offset" />
          </mxGeometry>
        </mxCell>
        <mxCell id="clO0gQxYRbjcscfBldyJ-9" value="&lt;ul&gt;&lt;li&gt;promise high return arbitrage between exchanges（搬砖 moving bricks）&lt;br&gt;&lt;/li&gt;&lt;li&gt;may or may not exist real arbitrage&lt;/li&gt;&lt;li&gt;return is awarded in the form of pluscoin https://www.plus-coin.com/en/&amp;nbsp; the website is still on as of Feb-2021&lt;/li&gt;&lt;/ul&gt;" style="text;strokeColor=none;fillColor=none;html=1;whiteSpace=wrap;verticalAlign=middle;overflow=hidden;fontSize=13;" vertex="1" parent="1">
          <mxGeometry x="380" y="270" width="310" height="120" as="geometry" />
        </mxCell>
      </root>
    </mxGraphModel>
  </diagram>
</mxfile>
